<?xml version="1.0" encoding="UTF-8" standalone="no"?>
<svg
   xmlns:dc="http://purl.org/dc/elements/1.1/"
   xmlns:cc="http://creativecommons.org/ns#"
   xmlns:rdf="http://www.w3.org/1999/02/22-rdf-syntax-ns#"
   xmlns:svg="http://www.w3.org/2000/svg"
   xmlns="http://www.w3.org/2000/svg"
   xmlns:sodipodi="http://sodipodi.sourceforge.net/DTD/sodipodi-0.dtd"
   xmlns:inkscape="http://www.inkscape.org/namespaces/inkscape"
   width="210mm"
   height="297mm"
   viewBox="0 0 210 297"
   version="1.1"
   id="svg8"
   inkscape:version="1.0.2 (e86c870879, 2021-01-15, custom)"
   sodipodi:docname="torus_cycle.svg">
  <defs
     id="defs2">
    <inkscape:path-effect
       effect="bspline"
       id="path-effect854"
       is_visible="true"
       lpeversion="1"
       weight="33.333333"
       steps="2"
       helper_size="0"
       apply_no_weight="true"
       apply_with_weight="true"
       only_selected="false" />
    <inkscape:path-effect
       effect="bspline"
       id="path-effect901"
       is_visible="true"
       lpeversion="1"
       weight="33.333333"
       steps="2"
       helper_size="0"
       apply_no_weight="true"
       apply_with_weight="true"
       only_selected="false" />
    <inkscape:path-effect
       effect="bspline"
       id="path-effect890"
       is_visible="true"
       lpeversion="1"
       weight="33.333333"
       steps="2"
       helper_size="0"
       apply_no_weight="true"
       apply_with_weight="true"
       only_selected="false" />
    <inkscape:path-effect
       effect="bspline"
       id="path-effect871"
       is_visible="true"
       lpeversion="1"
       weight="33.333333"
       steps="2"
       helper_size="0"
       apply_no_weight="true"
       apply_with_weight="true"
       only_selected="false" />
    <inkscape:path-effect
       effect="bspline"
       id="path-effect867"
       is_visible="true"
       lpeversion="1"
       weight="33.333333"
       steps="2"
       helper_size="0"
       apply_no_weight="true"
       apply_with_weight="true"
       only_selected="false" />
    <inkscape:path-effect
       effect="bspline"
       id="path-effect863"
       is_visible="true"
       lpeversion="1"
       weight="33.333333"
       steps="2"
       helper_size="0"
       apply_no_weight="true"
       apply_with_weight="true"
       only_selected="false" />
  </defs>
  <sodipodi:namedview
     id="base"
     pagecolor="#ffffff"
     bordercolor="#666666"
     borderopacity="1.0"
     inkscape:pageopacity="0.0"
     inkscape:pageshadow="2"
     inkscape:zoom="2.0000001"
     inkscape:cx="467.49205"
     inkscape:cy="467.06304"
     inkscape:document-units="mm"
     inkscape:current-layer="layer1"
     inkscape:document-rotation="0"
     showgrid="false"
     inkscape:window-width="1920"
     inkscape:window-height="1051"
     inkscape:window-x="-9"
     inkscape:window-y="-9"
     inkscape:window-maximized="1" />
  <metadata
     id="metadata5">
    <rdf:RDF>
      <cc:Work
         rdf:about="">
        <dc:format>image/svg+xml</dc:format>
        <dc:type
           rdf:resource="http://purl.org/dc/dcmitype/StillImage" />
        <dc:title></dc:title>
      </cc:Work>
    </rdf:RDF>
  </metadata>
  <g
     inkscape:label="Layer 1"
     inkscape:groupmode="layer"
     id="layer1">
    <path
       style="fill:none;stroke:#ff0000;stroke-width:0.50000001;stroke-linecap:round;stroke-linejoin:miter;stroke-miterlimit:4;stroke-dasharray:0.50000001,1.00000003;stroke-opacity:1;stroke-dashoffset:0"
       d="m 137.36237,98.829323 c 0.64703,0.171526 1.47332,0.436562 2.05788,1.052515 0.58455,0.615952 0.92754,1.582552 1.0366,2.486772 0.10906,0.90423 -0.0157,1.74611 -0.40542,2.50216 -0.38976,0.75605 -1.04456,1.42644 -1.55908,2.0579 -0.51451,0.63146 -0.88868,1.2239 -1.12254,1.95675 -0.23385,0.73286 -0.32739,1.60592 -0.24937,2.42448 0.078,0.81856 0.32747,1.58249 0.61593,2.28408 0.28846,0.70159 0.61586,1.34079 0.84966,2.08135 0.23381,0.74057 0.37412,1.58245 0.33509,2.35413 -0.039,0.77168 -0.25729,1.47325 -0.61582,1.97205 -0.35852,0.4988 -0.85742,0.79502 -1.37969,1.06006 -0.52227,0.26504 -1.06793,0.4989 -1.85518,0.43661 -0.78725,-0.0623 -1.81622,-0.42086 -2.84552,-0.77956"
       id="path860" />
    <path
       style="fill:none;stroke:#ff0000;stroke-width:0.5;stroke-linecap:butt;stroke-linejoin:miter;stroke-miterlimit:4;stroke-dasharray:none;stroke-opacity:1"
       d="m 132.22491,120.71896 c -0.73276,-0.70158 -1.46525,-1.40291 -2.01882,-2.38511 -0.55356,-0.9822 -0.92773,-2.24502 -1.54349,-3.35978 -0.61577,-1.11476 -1.47324,-2.08138 -2.75948,-2.59601 -1.28624,-0.51462 -3.00118,-0.57699 -4.85655,-0.35094 -1.85536,0.22604 -3.85093,0.74053 -5.21516,-0.008 -1.36423,-0.74819 -2.09698,-2.75936 -2.50239,-4.30286 -0.4054,-1.5435 -0.48336,-2.61926 -0.24173,-3.67953 0.24163,-1.06028 0.80288,-2.10484 1.46553,-2.96239 0.66265,-0.85755 1.42658,-1.527934 2.64279,-1.886519 1.21621,-0.358584 2.88438,-0.405356 4.4357,0.03909 1.55132,0.444448 2.98563,1.379869 4.2407,1.941069 1.25506,0.5612 2.3308,0.74828 3.42989,0.69366 1.0991,-0.0546 2.22161,-0.35083 3.11802,-0.7406 0.8964,-0.38977 1.5668,-0.87308 2.08905,-1.325187 0.52226,-0.452107 0.89643,-0.873048 1.31754,-1.04453 0.42112,-0.171482 0.88884,-0.09353 1.53586,0.078"
       id="path852" />
    <path
       id="path861"
       style="fill:#cccccc;stroke:#cccccc;stroke-width:0.999999px;stroke-linecap:round;stroke-linejoin:round;stroke-opacity:1"
       d="m 665,479 c -4.83352,9.33371 -9.66684,18.66684 -19.5,28.25 -9.83316,9.58316 -22.91659,20.91724 -40.5,31.08398 -17.58341,10.16675 -39.66599,18.41655 -62.16602,26.5 -22.50002,8.08346 -45.94608,12.67069 -81.66601,19.08204 C 428.66782,589.74945 375.58425,595.74994 329,595.5 c 18.83438,1.16673 37.66722,2.33339 54.58398,2.625 16.91677,0.29161 31.91725,-0.29164 45.14649,-1.125 13.22924,-0.83336 24.68808,-1.91728 36.83398,-3.52148 12.14591,-1.60421 24.97845,-3.72848 36.04102,-5.79102 11.06257,-2.06254 20.35283,-4.06311 29.89453,-6.52148 9.5417,-2.45838 19.33327,-5.3743 29.9375,-9.10352 10.60423,-3.72922 22.02084,-8.27144 32.1875,-13.08398 10.16666,-4.81255 19.08275,-9.89584 25.97852,-14.5 6.89577,-4.60417 11.77146,-8.7285 15.77148,-12.22852 4.00002,-3.50002 7.12503,-6.37439 10.4375,-9.97852 3.31247,-3.60412 6.81254,-7.93765 9.125,-11.375 2.31246,-3.43734 3.43749,-5.97851 4.625,-8.85351 1.18751,-2.87501 2.43682,-6.08408 3.29102,-8.83399 0.85419,-2.7499 1.31375,-5.04237 1.60546,-7.33398 0.29172,-2.29161 0.41599,-4.5824 0.54102,-6.875 z"
       transform="scale(0.26458333)"
       sodipodi:nodetypes="csssscssssssssssssssc" />
    <path
       style="fill:none;stroke:#ff0000;stroke-width:0.5;stroke-linecap:round;stroke-linejoin:round;stroke-miterlimit:4;stroke-dasharray:none;stroke-opacity:1"
       d="m 112.91252,158.07439 c 0.72072,-0.0213 2.88954,-0.46928 3.95881,-1.11568 1.34231,-1.24988 1.2796,-1.37442 1.7691,-2.48948 0.53455,-1.21767 0.94036,-2.9584 1.67313,-4.51749 0.73277,-1.55909 1.43434,-3.02459 2.15153,-4.18616 0.7172,-1.16156 1.44995,-2.01903 5.722,-3.1572 4.27205,-1.13816 12.08285,-2.55689 17.85919,-4.20174 5.77635,-1.64485 9.51805,-3.5157 12.09046,-6.02574 2.5724,-2.51005 3.97554,-5.65932 4.28741,-8.73063 0.31188,-3.0713 -0.46764,-6.06466 -2.49435,-8.4969 -2.02671,-2.43223 -5.3007,-4.30308 -9.40916,-5.32616 -4.10845,-1.02308 -9.05097,-1.19816 -13.49063,-1.39406 -4.43967,-0.1959 -8.37593,-0.41259 -12.12359,-0.60347 -3.74766,-0.19087 -7.30627,-0.3559 -10.41589,-0.41327 -3.10963,-0.0574 -5.76998,-0.007 -9.58982,5.2e-4 -3.81984,0.008 -8.799104,-0.0276 -14.579298,-2.47915 v -5e-5 C 84.541219,102.48621 78.001459,97.483509 72.355696,98.175236"
       id="path913"
       sodipodi:nodetypes="ccsssssssssssscccc" />
    <path
       style="fill:none;stroke:#ff0000;stroke-width:0.5;stroke-linecap:round;stroke-linejoin:round;stroke-miterlimit:4;stroke-dasharray:0.5, 1;stroke-dashoffset:0;stroke-opacity:1"
       d="m 101.63495,134.23931 c 1.24101,0.13841 2.57276,2.39872 3.34258,4.85473 0.82774,2.64079 1.07662,3.58158 1.68646,6.99138 0.62116,3.4731 1.27066,6.22068 2.00351,8.07597 0.73285,1.85529 2.95692,3.95106 4.24502,3.913"
       id="path911"
       sodipodi:nodetypes="csssc" />
    <path
       style="fill:none;stroke:#ff0000;stroke-width:0.5;stroke-linecap:round;stroke-linejoin:round;stroke-miterlimit:4;stroke-dasharray:none;stroke-opacity:1"
       d="m 50.83024,148.46865 c 6.415072,3.06223 16.452843,3.43891 23.987735,3.10337 7.597177,-0.39127 11.452515,-0.7908 14.199386,-2.16919 2.746872,-1.37839 4.385241,-3.7356 5.7969,-5.78732 1.411658,-2.05173 2.59653,-3.79786 3.50634,-5.2768 0.90981,-1.47895 2.118839,-3.73833 3.314349,-4.0994"
       id="path907"
       sodipodi:nodetypes="ccsssc" />
    <path
       style="fill:none;stroke:#ff0000;stroke-width:0.5;stroke-linecap:round;stroke-linejoin:round;stroke-miterlimit:4;stroke-dasharray:0.5, 1;stroke-dashoffset:0;stroke-opacity:1"
       d="m 72.355696,98.175236 c -5.292718,1.170442 -10.396741,7.078014 -14.186049,12.542504 -3.789309,5.46449 -6.657942,10.14161 -8.775537,17.01251 -2.117594,6.8709 -3.550162,16.39779 1.43613,20.7384"
       id="path899"
       sodipodi:nodetypes="cssc" />
    <path
       style="fill:#cccccc;stroke:#cccccc;stroke-width:0.264583px;stroke-linecap:round;stroke-linejoin:round;stroke-opacity:1"
       d="m 105.92168,116.2403 c -1.23458,-0.17637 -3.70398,-0.52914 -7.011309,-0.70556 -3.307331,-0.17641 -7.452386,-0.17641 -11.840132,0.28659 -4.387745,0.463 -8.642006,0.98476 -12.190898,2.01507 -4.784614,1.38907 -6.31528,2.23828 -8.134739,3.46503 -2.013142,1.35735 -3.066009,2.07223 -4.612304,3.81458 -0.845926,0.95318 -0.788578,1.39376 -0.573425,1.58123 0.215152,0.18746 0.673628,0.41876 1.189831,0.71556 0.516204,0.29679 1.115421,0.54647 1.53926,0.70313 0.42384,0.15667 0.676203,0.222 0.835882,0.0622 0.159679,-0.15979 0.227013,-0.54482 0.376431,-0.96891 0.149417,-0.42409 0.380922,-0.8871 0.634503,-1.273 0.253581,-0.3859 0.529181,-0.69457 0.826864,-0.97847 0.297682,-0.2839 0.617379,-0.54296 1.063882,-0.8737 0.446502,-0.33074 1.019755,-0.73312 1.435922,-1.02802 0.416167,-0.2949 0.675233,-0.48231 1.052853,-0.69454 0.377619,-0.21223 0.873703,-0.44925 1.51314,-0.70832 0.639436,-0.25908 1.422146,-0.54019 2.180079,-0.80478 0.757932,-0.26458 1.491034,-0.51263 2.033991,-0.68901 0.542958,-0.17639 0.89573,-0.28112 1.485539,-0.452 0.589809,-0.17088 1.416615,-0.4079 2.24346,-0.6146 0.826844,-0.20671 1.653648,-0.38309 2.604511,-0.56775 0.950863,-0.18465 2.025712,-0.37757 2.791907,-0.51262 0.766195,-0.13505 1.223697,-0.21222 1.7887,-0.30592 0.565003,-0.0937 1.237472,-0.20395 1.912732,-0.28663 0.67526,-0.0827 1.353238,-0.1378 1.987139,-0.19016 0.633901,-0.0524 1.223697,-0.10197 1.838311,-0.14331 0.614615,-0.0413 1.254013,-0.0744 1.901695,-0.11574 0.647683,-0.0413 1.303615,-0.0909 2.224162,-0.12953 0.920548,-0.0386 2.105637,-0.0662 2.918676,-0.0965 0.813037,-0.0303 1.254007,-0.0634 1.681207,-0.0827 0.42721,-0.0193 0.84061,-0.0248 1.37529,-0.033 0.53469,-0.008 1.19062,-0.0193 1.82728,-0.0303 0.63666,-0.011 1.25401,-0.0221 1.63982,-0.0524 0.38582,-0.0303 1.97838,0.11878 2.05547,0.094 0.0771,-0.0248 -1.36114,-0.22358 -2.59573,-0.39995 z"
       id="path865"
       sodipodi:nodetypes="ssssssssssssssssssssssssscccssscsscss" />
    <path
       id="path847"
       style="fill:none;stroke:#000000;stroke-width:0.6;stroke-linecap:round;stroke-linejoin:round;stroke-miterlimit:4;stroke-dasharray:none"
       d="M 175.94791,126.73542 A 72.495834,31.617708 0 0 1 103.45208,158.35313 72.495834,31.617708 0 0 1 30.956245,126.73542 72.495834,31.617708 0 0 1 103.45208,95.117709 72.495834,31.617708 0 0 1 175.94791,126.73542 Z" />
    <path
       style="fill:none;stroke:#000000;stroke-width:0.6;stroke-linejoin:round;stroke-miterlimit:4;stroke-dasharray:none;stroke-linecap:round"
       d="m 148.42312,122.36979 c 0,6.50258 -20.13422,11.77396 -44.97104,11.77396 -24.836829,0 -44.971054,-5.27138 -44.971049,-11.77396"
       id="ellipse849" />
    <path
       style="fill:none;stroke:#000000;stroke-width:0.6;stroke-linecap:round;stroke-linejoin:round;stroke-miterlimit:4;stroke-dasharray:none"
       d="m 65.216223,128.40316 c -4e-6,-6.50258 17.118773,-11.77396 38.235857,-11.77396 21.11708,0 38.23585,5.27138 38.23585,11.77396"
       id="path854" />
    <circle
       style="opacity:1;fill:#0000ff;fill-opacity:1;stroke:#0000ff;stroke-width:0.5;stroke-linecap:round;stroke-linejoin:round;stroke-miterlimit:4;stroke-dasharray:none;stroke-dashoffset:0"
       id="path862"
       cx="113.19205"
       cy="107.4043"
       r="0.59531248" />
  </g>
</svg>
